<svg xmlns="http://www.w3.org/2000/svg" viewBox="0 0 64 64"><defs><style>.cls-1{opacity:0.87;}.cls-2{fill:#10070a;}.cls-3{fill:#fcb415;opacity:0.78;}.cls-4{fill:#f4f5fb;}.cls-5{fill:#fff;}</style></defs><title>HALLOWEEN</title><g id="_7.NIGHT" data-name="7.NIGHT"><g class="cls-1"><path class="cls-2" d="M57.52,16.19a7,7,0,0,0-4.3.32,9.18,9.18,0,0,0-14.61-.6A7.64,7.64,0,0,0,30,21.68C29,25.78,31.9,29,36,30c1.33.32,1.71,2.39,3,2,.84,2.15,3.31,2.58,5.6,3.13a7.13,7.13,0,0,0,8.59-5.28l0-.09a7.19,7.19,0,0,0,1,.31,7.13,7.13,0,1,0,3.31-13.88Z"/><path class="cls-2" d="M50.16,43.87c0-3.9-4.14-7.08-9.23-7.08a11.06,11.06,0,0,0-5.55,1.42,13,13,0,0,0-4.71-2,23.76,23.76,0,0,1,6.4-28.42,1,1,0,0,0,.3-1.1v0a.61.61,0,0,0-.07-.14l-.1-.15-.12-.12A.21.21,0,0,0,37,6.16,1,1,0,0,0,36.26,6c-.56,0-1.13.08-1.67.15a22.12,22.12,0,0,0-19,24.79,21.75,21.75,0,0,0,2.65,7.93l-.43.38a8.44,8.44,0,0,1-3.87,2C9.92,42.16,7,45,7,48.42,7,52.6,11.45,56,16.92,56a12.39,12.39,0,0,0,5.31-1.16A10.08,10.08,0,0,0,30,58C35,58,39.18,54.85,39.18,51v-.14a11.09,11.09,0,0,0,1.75.13C46,50.94,50.16,47.77,50.16,43.87Z"/></g><path class="cls-3" d="M15.23,38.86l-.14.14H18l2-1s5-1,6-1a3.48,3.48,0,0,0,1.67-.84,23.76,23.76,0,0,1,6.4-28.41,1,1,0,0,0,.3-1.1v0a.61.61,0,0,0-.07-.14l-.1-.15-.12-.12A.21.21,0,0,0,34,6.16,1,1,0,0,0,33.26,6c-.56,0-1.13.08-1.67.15a22.12,22.12,0,0,0-19,24.79A21.75,21.75,0,0,0,15.23,38.86Z"/><path d="M43.25,35.32a7.14,7.14,0,0,1-6.65-4.55,7.65,7.65,0,1,1-1-14.87,9.18,9.18,0,0,1,14.61.6,7,7,0,0,1,4.3-.32,7.14,7.14,0,0,1,5.29,8.59h0a7.14,7.14,0,0,1-8.59,5.28,7.19,7.19,0,0,1-1-.31l0,.09A7.15,7.15,0,0,1,43.25,35.32Zm-6-6.86a1,1,0,0,1,1,.79,5.13,5.13,0,0,0,10,.13,5.08,5.08,0,0,0,.14-1.2A1,1,0,0,1,50,27.35a4.9,4.9,0,0,0,1.71.77,5.13,5.13,0,1,0,2.38-10,5,5,0,0,0-3.71.54A1,1,0,0,1,49,18.28a7.18,7.18,0,0,0-12.14-.7,1,1,0,0,1-1,.39,5.64,5.64,0,1,0,1,10.57A1,1,0,0,1,37.25,28.46Zm21.58-3.91h0Z"/><path d="M34.3,6.49a.77.77,0,0,1,.07.16v0A.61.61,0,0,0,34.3,6.49Z"/><path d="M25.25,16.52c-.3.75-.56,1.51-.79,2.29A22.91,22.91,0,0,1,25.25,16.52Z"/><path d="M30.5,8.35c-.57.6-1.11,1.22-1.61,1.86.5-.64,1-1.26,1.6-1.86Z"/><path d="M37.93,36.79a11.06,11.06,0,0,0-5.55,1.42,13,13,0,0,0-4.71-2,23.76,23.76,0,0,1,6.4-28.42,1,1,0,0,0,.3-1.1.77.77,0,0,0-.07-.16l-.1-.15-.12-.12A.21.21,0,0,0,34,6.16,1,1,0,0,0,33.26,6c-.56,0-1.13.08-1.67.15a22.12,22.12,0,0,0-19,24.79,21.75,21.75,0,0,0,2.65,7.93,8.73,8.73,0,0,0-1.77,2C8.2,41,4,44.36,4,48.42S8.45,56,13.92,56a12.39,12.39,0,0,0,5.31-1.16A10.08,10.08,0,0,0,27,58C32,58,36.18,54.85,36.18,51v-.14a11.09,11.09,0,0,0,1.75.13c5.09,0,9.23-3.17,9.23-7.07S43,36.79,37.93,36.79ZM14.56,30.67A20.09,20.09,0,0,1,30.49,8.35h0c-.57.6-1.11,1.22-1.61,1.86-.26.33-.5.65-.74,1s-.38.55-.56.83a2.39,2.39,0,0,0-.19.29c-.17.27-.34.54-.5.82a2,2,0,0,0-.11.2c-.17.28-.32.57-.47.86-.27.5-.51,1-.73,1.52-.12.26-.23.53-.34.8-.3.75-.56,1.51-.79,2.29-.08.28-.16.56-.23.85a5.72,5.72,0,0,0-.14.56c0,.15-.07.29-.1.44q-.11.48-.18,1l-.06.34c-.06.34-.11.69-.14,1,0,.11,0,.22,0,.33,0,.29-.06.59-.08.89a26.42,26.42,0,0,0,.16,5.25c0,.35.1.7.16,1s.12.69.2,1,.15.69.24,1,.13.52.21.77.19.63.3.94.17.5.26.74.2.55.31.81a14.86,14.86,0,0,0-8.47,1.87A19.87,19.87,0,0,1,14.56,30.67ZM37.93,48.94a9.25,9.25,0,0,1-2.69-.38A1,1,0,0,0,34,49.83,3.6,3.6,0,0,1,34.18,51c0,2.8-3.24,5.07-7.23,5.07-2.84,0-5.42-1.18-6.59-3A1,1,0,0,0,19,52.69,10.11,10.11,0,0,1,13.92,54C9.55,54,6,51.5,6,48.42s3.55-5.58,7.92-5.58H14a1,1,0,0,0,.88-.52,7.22,7.22,0,0,1,2.16-2.38l0,0h0a12.12,12.12,0,0,1,7.09-2.13,13.65,13.65,0,0,1,2.57.24h0a11,11,0,0,1,4.87,2.18,1,1,0,0,0,1.21,0,8.77,8.77,0,0,1,5-1.46c4,0,7.23,2.28,7.23,5.08S41.92,48.94,37.93,48.94Z"/><path d="M16.52,10.3a1,1,0,0,1,0,1.41,1,1,0,0,1-.7.29,1,1,0,0,1-.71-.29l-.35-.36-.36.35a1,1,0,0,1-.7.29,1,1,0,0,1-.71-.3,1,1,0,0,1,0-1.41l.35-.35L13,9.57a1,1,0,0,1,1.43-1.4l.35.35.35-.35a1,1,0,1,1,1.41,1.42l-.36.35Z"/><path d="M9,25.87a1,1,0,0,1-.85.47,1,1,0,0,1-.53-.15l-.42-.26-.27.42a1,1,0,0,1-.85.48.91.91,0,0,1-.52-.16,1,1,0,0,1-.32-1.37l.26-.42-.43-.27a1,1,0,0,1,1.06-1.7l.43.27.26-.43a1,1,0,0,1,1.7,1.06l-.27.42.43.27A1,1,0,0,1,9,25.87Z"/><path d="M55.83,44.2l-.48.14.14.48a1,1,0,0,1-.68,1.24.92.92,0,0,1-.28,0,1,1,0,0,1-1-.72l-.14-.48L53,45a.9.9,0,0,1-.28,0,1,1,0,0,1-.28-2l.48-.14-.14-.48A1,1,0,1,1,54.65,42l.14.47.48-.14a1,1,0,0,1,.56,1.92Z"/><path d="M48.18,55.36a1,1,0,0,1-.78.37,1,1,0,0,1-.63-.22l-.39-.31-.31.38a1,1,0,0,1-.78.37,1,1,0,0,1-.77-1.63l.31-.38-.39-.32a1,1,0,0,1,1.27-1.56l.39.32.31-.39A1,1,0,0,1,48,53.25l-.32.39L48,54A1,1,0,0,1,48.18,55.36Z"/><path class="cls-4" d="M20,19a1,1,0,0,1-.8-1.6c.3-.4.63-.8,1-1.17a1,1,0,1,1,1.47,1.35c-.3.32-.58.67-.85,1A1,1,0,0,1,20,19Z"/><path class="cls-4" d="M17.58,24a1,1,0,0,1-.27,0,1,1,0,0,1-.7-1.23q.15-.54.34-1.07t.42-1.07a1,1,0,0,1,1.83.8q-.2.46-.37.93t-.29.93A1,1,0,0,1,17.58,24Z"/><path class="cls-4" d="M18.91,35.16a1,1,0,0,1-.88-.52l-.09-.16,0,0c-.19-.35-.36-.7-.51-1s-.25-.57-.36-.87A15.94,15.94,0,0,1,16,27q0-.54,0-1.07a1,1,0,1,1,2,.13q0,.46,0,.93a13.85,13.85,0,0,0,.44,3.41,14,14,0,0,0,.45,1.42q.15.39.31.76t.46.93h0l.08.14a1,1,0,0,1-.87,1.48Z"/><path class="cls-5" d="M56,24H51a1,1,0,0,1,0-2h5a1,1,0,0,1,0,2Z"/><path class="cls-5" d="M47,24H46a1,1,0,0,1,0-2h1a1,1,0,0,1,0,2Z"/><path class="cls-5" d="M42,24l-.2,0-.18-.06-.18-.09-.15-.12-.12-.15a.76.76,0,0,1-.09-.18A.63.63,0,0,1,41,23.2a1,1,0,0,1,0-.4.63.63,0,0,1,.06-.18.77.77,0,0,1,.09-.18l.12-.15.15-.12.18-.09A.63.63,0,0,1,41.8,22a1,1,0,0,1,.91.27l.12.15a.77.77,0,0,1,.09.18.65.65,0,0,1,.06.18,1,1,0,0,1,0,.4.65.65,0,0,1-.06.18.76.76,0,0,1-.09.18l-.12.15A1.05,1.05,0,0,1,42,24Z"/><path class="cls-5" d="M15,48H10a1,1,0,0,1,0-2h5a1,1,0,1,1,0,2Z"/><path class="cls-5" d="M20,48H19a1,1,0,0,1,0-2h1a1,1,0,0,1,0,2Z"/><path class="cls-5" d="M24,48a1.05,1.05,0,0,1-.71-.29,1.16,1.16,0,0,1-.21-.33A1,1,0,0,1,23,47a1.46,1.46,0,0,1,0-.2.63.63,0,0,1,.06-.18.77.77,0,0,1,.09-.18l.12-.15a1,1,0,0,1,1.42,0A1,1,0,0,1,25,47a1,1,0,0,1-.08.38,1.16,1.16,0,0,1-.21.33A1.05,1.05,0,0,1,24,48Z"/></g></svg>